<svg id="Layer_1" width="100%" data-name="Layer 1" xmlns="http://www.w3.org/2000/svg" viewBox="0 0 579.38 138.95"><defs><style>.cls-1{fill:#333;}.cls-2{fill:#fff;}</style></defs><title>ESIMS-LOGO</title><path class="cls-1" d="M54.21,86.16q-10.29,0-16.76-6.32T31,63V61.8A28.38,28.38,0,0,1,33.7,49.19a20,20,0,0,1,7.73-8.57,21.71,21.71,0,0,1,11.4-3q9.6,0,15.12,6.05t5.51,17.18v.84A4.26,4.26,0,0,1,69.2,66h-19a4.25,4.25,0,0,0-3,7.3l.06,0A11,11,0,0,0,55,76.08a14.08,14.08,0,0,0,8.61-2.6,4.22,4.22,0,0,1,5.62.65l.67.75a4.23,4.23,0,0,1-.29,6,19.94,19.94,0,0,1-4.79,3.07A24.91,24.91,0,0,1,54.21,86.16ZM52.78,47.7a7.8,7.8,0,0,0-6,2.52l-.18.2a4.26,4.26,0,0,0,3.26,7H61.18v-1A9.32,9.32,0,0,0,58.93,50,8.08,8.08,0,0,0,52.78,47.7Z"/><path class="cls-1" d="M114.05,68.77a6.67,6.67,0,0,0-2.6-5.65q-2.6-2-9.34-4.15a65.76,65.76,0,0,1-10.69-4.31Q80.69,48.87,80.69,39a15.17,15.17,0,0,1,2.88-9.1,18.7,18.7,0,0,1,8.26-6.25,31.09,31.09,0,0,1,12.09-2.25,28.32,28.32,0,0,1,12,2.44,19.17,19.17,0,0,1,8.2,6.9c.25.38.48.76.69,1.15a6.11,6.11,0,0,1-5.44,9h-.55a5.92,5.92,0,0,1-5.44-3.84,7.65,7.65,0,0,0-2-2.88c-1.81-1.6-4.37-2.4-7.65-2.4s-5.64.67-7.4,2a6.35,6.35,0,0,0-2.64,5.3,6.09,6.09,0,0,0,3.09,5.15,35,35,0,0,0,9.11,3.89q11.07,3.33,16.14,8.26a16.49,16.49,0,0,1,5.06,12.29,15.15,15.15,0,0,1-6.19,12.83q-6.18,4.65-16.65,4.65A32.22,32.22,0,0,1,91,83.5a20.9,20.9,0,0,1-9.11-7.29,19.78,19.78,0,0,1-1.17-2,6.11,6.11,0,0,1,5.55-8.75h.33a6.07,6.07,0,0,1,5.78,4.08q2.13,6.34,11.86,6.35A12.08,12.08,0,0,0,111.45,74,6.11,6.11,0,0,0,114.05,68.77Z"/><path class="cls-1" d="M143.16,85.3h0a6.5,6.5,0,0,1-6.49-6.49v-50a6.5,6.5,0,0,1,6.49-6.49h0a6.49,6.49,0,0,1,6.49,6.49v50A6.49,6.49,0,0,1,143.16,85.3Z"/><path class="cls-1" d="M180.14,26.53l12.8,36.15a2,2,0,0,0,3.76,0l12.72-36.13a6.36,6.36,0,0,1,6-4.24h6.2A6.35,6.35,0,0,1,228,28.65V78.94a6.35,6.35,0,0,1-6.35,6.36h-.32a6.36,6.36,0,0,1-6.35-6.36V68.08l.85-19.52a1.56,1.56,0,0,0-3-.61l-12,33.16a6.36,6.36,0,0,1-6,4.19h0a6.35,6.35,0,0,1-6-4.2L176.84,48a1.56,1.56,0,0,0-3,.6l.85,19.46V78.94a6.35,6.35,0,0,1-6.35,6.36H168a6.36,6.36,0,0,1-6.35-6.36V28.65A6.35,6.35,0,0,1,168,22.3h6.12A6.36,6.36,0,0,1,180.14,26.53Z"/><path class="cls-1" d="M272,68.77a6.66,6.66,0,0,0-2.59-5.65q-2.6-2-9.35-4.15a65.6,65.6,0,0,1-10.68-4.31Q238.6,48.87,238.61,39a15.23,15.23,0,0,1,2.87-9.1,18.79,18.79,0,0,1,8.27-6.25,31.09,31.09,0,0,1,12.09-2.25,28.32,28.32,0,0,1,12,2.44,19.17,19.17,0,0,1,8.2,6.9c.24.38.48.76.69,1.15a6.11,6.11,0,0,1-5.44,9h-.55a5.9,5.9,0,0,1-5.44-3.84,7.65,7.65,0,0,0-2.05-2.88q-2.73-2.4-7.66-2.4-4.75,0-7.39,2a6.35,6.35,0,0,0-2.64,5.3,6.09,6.09,0,0,0,3.09,5.15,35,35,0,0,0,9.11,3.89q11.07,3.33,16.14,8.26A16.49,16.49,0,0,1,285,68.68a15.18,15.18,0,0,1-6.19,12.83q-6.18,4.65-16.66,4.65A32.28,32.28,0,0,1,248.9,83.5a20.87,20.87,0,0,1-9.1-7.29,16.58,16.58,0,0,1-1.17-2,6.11,6.11,0,0,1,5.55-8.75h.33a6.07,6.07,0,0,1,5.78,4.08q2.13,6.34,11.85,6.35A12.09,12.09,0,0,0,269.37,74,6.1,6.1,0,0,0,272,68.77Z"/><path class="cls-1" d="M365.72,62.77l6.7-35.39a6.24,6.24,0,0,1,6.13-5.08h0a6.23,6.23,0,0,1,6.08,7.59L373.42,80.41a6.24,6.24,0,0,1-6.08,4.89h-3.17a6.23,6.23,0,0,1-6.05-4.77l-7.58-31.14a1.56,1.56,0,0,0-3,0l-7.57,31.14a6.24,6.24,0,0,1-6.06,4.77H330.7a6.24,6.24,0,0,1-6.08-4.89L313.41,29.89a6.23,6.23,0,0,1,6.09-7.59h0a6.24,6.24,0,0,1,6.13,5.07l6.73,35.34a.93.93,0,0,0,1.82,0l8.27-35.62a6.23,6.23,0,0,1,6.07-4.83h1.08a6.23,6.23,0,0,1,6.07,4.83l8.23,35.68A.93.93,0,0,0,365.72,62.77Z"/><path class="cls-1" d="M412.71,86.16q-10.31,0-16.77-6.32T389.47,63V61.8a28.25,28.25,0,0,1,2.73-12.61,20,20,0,0,1,7.72-8.57,21.71,21.71,0,0,1,11.4-3q9.62,0,15.12,6.05T432,60.85v.84A4.27,4.27,0,0,1,427.7,66h-19a4.25,4.25,0,0,0-3,7.3l.06,0a11,11,0,0,0,7.72,2.77,14.12,14.12,0,0,0,8.61-2.6,4.22,4.22,0,0,1,5.62.65l.67.75a4.23,4.23,0,0,1-.29,6,20.14,20.14,0,0,1-4.79,3.07A24.91,24.91,0,0,1,412.71,86.16ZM411.28,47.7a7.83,7.83,0,0,0-6,2.52l-.18.2a4.27,4.27,0,0,0,3.27,7h11.34v-1A9.23,9.23,0,0,0,417.42,50,8.06,8.06,0,0,0,411.28,47.7Z"/><path class="cls-1" d="M481.24,62.32q0,11.25-4.8,17.55T463,86.16a14.69,14.69,0,0,1-9.85-3.42,1.65,1.65,0,0,0-2.7,1.08h0a1.66,1.66,0,0,1-1.65,1.48h-4.16a5.61,5.61,0,0,1-5.6-5.61V24.44a5.6,5.6,0,0,1,5.6-5.6H446a5.61,5.61,0,0,1,5.61,5.6V38.92a1.64,1.64,0,0,0,2.6,1.34,14.66,14.66,0,0,1,8.78-2.64q8.56,0,13.43,6.29t4.87,17.72Zm-12.5-.91q0-7.09-2.25-10.36a7.61,7.61,0,0,0-6.71-3.27q-5.75,0-8,4.53a1.83,1.83,0,0,0-.17.76V70.75a1.7,1.7,0,0,0,.18.76q2.34,4.58,8.13,4.57,6,0,8-6A31,31,0,0,0,468.74,61.41Z"/><rect class="cls-2" x="476.07" y="87.13" width="95.38" height="43.62" rx="21.81"/><path class="cls-1" d="M492.13,117.66V99.89a2.61,2.61,0,0,1,2.62-2.61h5.44a10.66,10.66,0,0,1,6.35,1.6,5.49,5.49,0,0,1,2.16,4.7,5.2,5.2,0,0,1-.87,3l0,0A2.83,2.83,0,0,0,508,110l.18.23a5.26,5.26,0,0,1,1,3.28,6.08,6.08,0,0,1-2.12,5,9.56,9.56,0,0,1-6,1.73h-6.32A2.61,2.61,0,0,1,492.13,117.66Zm4.74-12.34a1.59,1.59,0,0,0,1.59,1.59h1.92q3.58-.06,3.58-2.85a2.61,2.61,0,0,0-.91-2.25,4.74,4.74,0,0,0-2.86-.69h-.7a2.61,2.61,0,0,0-2.62,2.61Zm0,7.55v2a1.59,1.59,0,0,0,1.59,1.59h2.47a3.9,3.9,0,0,0,2.61-.8,2.73,2.73,0,0,0,.94-2.2q0-3.16-3.27-3.21h-1.72A2.61,2.61,0,0,0,496.87,112.87Z"/><path class="cls-1" d="M520.34,120.59a8.37,8.37,0,0,1-6.12-2.31,8.15,8.15,0,0,1-2.36-6.14v-.44a10.33,10.33,0,0,1,1-4.6,7.28,7.28,0,0,1,2.82-3.13,7.93,7.93,0,0,1,4.16-1.1,7.1,7.1,0,0,1,5.52,2.21,9,9,0,0,1,2,6.27v.3a1.56,1.56,0,0,1-1.57,1.56h-6.87a1.57,1.57,0,0,0-1.12,2.67l0,0a4,4,0,0,0,2.82,1,5.19,5.19,0,0,0,3.12-.93,1.56,1.56,0,0,1,2.07.22l.23.26a1.57,1.57,0,0,1-.17,2.26,7.43,7.43,0,0,1-1.67,1.06A9.14,9.14,0,0,1,520.34,120.59Zm-.52-14a2.88,2.88,0,0,0-2.21.92l-.07.08a1.56,1.56,0,0,0,1.23,2.55h4.11v-.36a3.43,3.43,0,0,0-.82-2.36A3,3,0,0,0,519.82,106.55Z"/><path class="cls-1" d="M535.42,100.23v1.71a1.25,1.25,0,0,0,1.24,1.25h.43a1.25,1.25,0,0,1,1.25,1.24v.86a1.24,1.24,0,0,1-1.25,1.24h-.43a1.25,1.25,0,0,0-1.24,1.25v7.28a2.05,2.05,0,0,0,.36,1.36,1.83,1.83,0,0,0,1.39.41,7.64,7.64,0,0,0,1.34-.11v2.48a1.25,1.25,0,0,1-1,1.23,10.05,10.05,0,0,1-1.74.16q-4.8,0-4.9-4.85v-8a1.25,1.25,0,0,0-1.24-1.25h0a1.24,1.24,0,0,1-1.25-1.24v-.86a1.25,1.25,0,0,1,1.25-1.24h0a1.25,1.25,0,0,0,1.24-1.25v-1.71A1.25,1.25,0,0,1,532.1,99h2.07A1.25,1.25,0,0,1,535.42,100.23Z"/><path class="cls-1" d="M551.51,120.27a1.05,1.05,0,0,1-1-.75,7.57,7.57,0,0,1-.17-.78,5.52,5.52,0,0,1-4.31,1.85,6.42,6.42,0,0,1-3.3-.83,5.26,5.26,0,0,1-2.41-5.44,4.65,4.65,0,0,1,1.91-3,10,10,0,0,1,5.82-1.46h2.1v-1a2.85,2.85,0,0,0-.6-1.9,2.42,2.42,0,0,0-1.92-.71,2.77,2.77,0,0,0-1.81.55,1.73,1.73,0,0,0-.55.81,1.11,1.11,0,0,1-1.07.71h-2.37a1.07,1.07,0,0,1-1-1.4,4.58,4.58,0,0,1,.7-1.35,6,6,0,0,1,2.59-2,9.36,9.36,0,0,1,3.75-.72,7.46,7.46,0,0,1,5,1.59,5.57,5.57,0,0,1,1.85,4.46v7.4a8.16,8.16,0,0,0,.68,3.68v.27ZM547,117.1a3.93,3.93,0,0,0,1.86-.45,3.18,3.18,0,0,0,1.1-.94,1,1,0,0,0,.16-.58v-1.57a1.06,1.06,0,0,0-1.06-1.06h-.64c-2.29,0-3.5.79-3.65,2.37l0,.27a1.84,1.84,0,0,0,.6,1.41A2.38,2.38,0,0,0,547,117.1Z"/></svg>